<?xml version="1.0" standalone="no"?><!DOCTYPE svg PUBLIC "-//W3C//DTD SVG 1.1//EN" "http://www.w3.org/Graphics/SVG/1.1/DTD/svg11.dtd"><svg t="1768266716286" class="icon" viewBox="0 0 1024 1024" version="1.1" xmlns="http://www.w3.org/2000/svg" p-id="25169" data-spm-anchor-id="a313x.search_index.0.i16.766b3a81Kt05rh" xmlns:xlink="http://www.w3.org/1999/xlink" width="256" height="256"><path d="M853.824 512c0 195.84-160.224 356.064-356.064 356.064-148.352 0-274.976-91.008-328.384-217.6h11.872c195.84 0 356.064-160.224 356.064-356.064a360.64 360.64 0 0 0-27.68-138.464c191.872 5.92 344.192 164.192 344.192 356.064zM509.632 76.8c-25.728 0-49.44 11.872-65.28 33.632s-17.792 51.424-7.904 75.168c13.856 35.616 21.76 71.2 21.76 108.8 0 152.32-124.64 276.96-276.96 276.96h-11.872c-25.728 0-49.44 11.872-65.28 33.632s-17.792 51.424-7.904 75.168C165.44 842.368 321.696 947.2 497.76 947.2c239.36 0 435.2-195.84 435.2-435.2A433.664 433.664 0 0 0 511.616 76.8h-1.984z" p-id="25170" fill="#fadb14"></path></svg>