<?xml version="1.0" standalone="no"?><!DOCTYPE svg PUBLIC "-//W3C//DTD SVG 1.1//EN" "http://www.w3.org/Graphics/SVG/1.1/DTD/svg11.dtd"><svg t="1768216821429" class="icon" viewBox="0 0 1024 1024" version="1.1" xmlns="http://www.w3.org/2000/svg" p-id="21072" xmlns:xlink="http://www.w3.org/1999/xlink" width="256" height="256"><path d="M629.76 116.736L906.752 394.24c42.496 42.496 28.672 115.2-26.624 138.752l-148.48 63.488-49.152 49.152-18.944 171.008c-5.12 44.032-42.496 76.8-86.528 75.776l-7.68-0.512c-19.456-2.048-37.376-10.752-50.688-24.576L363.52 712.192l-206.848 206.848c-8.704 8.704-17.408 12.8-25.6 12.8-8.704 0-17.408-4.096-26.112-12.8-17.408-17.408-17.408-34.304 0-51.712L311.808 660.48 156.672 505.344c-33.28-33.28-33.28-87.552 0-120.832 13.824-13.824 31.744-22.016 50.688-24.576l171.008-18.944 49.152-49.152 63.488-148.48c17.408-40.448 62.976-61.44 104.96-47.616l6.656 2.56c10.24 4.608 19.456 10.752 27.136 18.432z m225.792 329.216l-277.504-277.504c-4.608-4.608-12.288-4.608-17.408 0-1.024 1.024-2.048 2.56-2.56 3.584L492.032 327.68c-2.048 4.096-4.608 8.192-7.68 11.264L420.864 402.432c-5.632 5.632-13.824 9.728-22.016 10.24l-183.296 20.48c-6.656 0.512-11.264 6.656-10.752 13.312 0.512 2.56 1.536 5.12 3.584 7.168l361.984 361.984c4.608 4.608 12.288 4.608 17.408 0 2.048-2.048 3.072-4.608 3.584-7.168l20.48-183.808c1.024-8.192 4.608-15.872 10.24-22.016l63.488-62.976c3.072-3.072 7.168-6.144 11.264-7.68l155.136-66.56c6.144-2.56 9.216-9.728 6.656-15.872-1.536-1.024-2.048-2.56-3.072-3.584z" p-id="21073" fill="#389e0d"></path></svg>