<?xml version="1.0" standalone="no"?><!DOCTYPE svg PUBLIC "-//W3C//DTD SVG 1.1//EN" "http://www.w3.org/Graphics/SVG/1.1/DTD/svg11.dtd"><svg t="1768216241413" class="icon" viewBox="0 0 1024 1024" version="1.1" xmlns="http://www.w3.org/2000/svg" p-id="1948" xmlns:xlink="http://www.w3.org/1999/xlink" width="256" height="256"><path d="M546.944 511.808L874.4 185.664a24.576 24.576 0 1 0-34.688-34.816L512.128 477.12 184.544 150.848a24.608 24.608 0 0 0-34.656 34.848l-0.032-0.032 327.456 326.144L149.856 837.952a24.64 24.64 0 0 0 17.312 41.984h0.064a24.512 24.512 0 0 0 17.312-7.168l327.584-326.272 327.584 326.272c4.416 4.416 10.56 7.168 17.312 7.168h0.064a24.64 24.64 0 0 0 17.312-41.984L546.944 511.808z" p-id="1949" fill="#ffffff"></path></svg>